<svg width="62" height="51" viewBox="0 0 62 51" fill="none" xmlns="http://www.w3.org/2000/svg">
<path d="M16.9243 9.79872L13.7086 17.9017C13.3088 18.9091 14.1216 19.9808 15.1995 19.8676L23.6477 18.9796C24.751 18.8636 25.3155 17.5972 24.6642 16.6992L19.4317 9.48409C18.7642 8.56366 17.3437 8.7419 16.9243 9.79872Z" fill="#E9961B"/>
<path d="M42.0213 9.47758L37.1912 16.7349C36.5907 17.6371 37.1629 18.8545 38.2408 18.9678L46.689 19.8557C47.7923 19.9717 48.6077 18.8503 48.1574 17.8364L44.5394 9.69115C44.0778 8.65205 42.6513 8.53106 42.0213 9.47758Z" fill="#E9961B"/>
<path d="M6.33823 14.7207C5.64847 11.9339 9.01077 9.96068 11.1074 11.9218L17.3288 17.7412C18.553 18.8863 20.4922 18.7499 21.544 17.4448L29.1076 8.0597C30.2619 6.62746 32.444 6.62746 33.5983 8.0597L41.1619 17.4448C42.2137 18.7499 44.1529 18.8863 45.3771 17.7412L51.5985 11.9219C53.6951 9.96069 57.0574 11.9339 56.3677 14.7207L49.0771 44.1762C48.1935 47.7464 44.9894 50.2541 41.3115 50.2541H21.3945C17.7165 50.2541 14.5124 47.7464 13.6288 44.1762L6.33823 14.7207Z" fill="#F9BA17"/>
<circle cx="31.6074" cy="4.86275" r="3.42089" fill="#F96817" stroke="#F9BA17" stroke-width="2.88372"/>
<circle cx="18.2342" cy="7.29403" r="3.64706" fill="#E9961B"/>
<circle cx="43.7645" cy="7.29403" r="3.64706" fill="#E9961B"/>
<circle cx="57.1376" cy="7.2939" r="3.42089" fill="#F96817" stroke="#F9BA17" stroke-width="2.88372"/>
<circle cx="4.86275" cy="8.50972" r="3.42089" fill="#F96817" stroke="#F9BA17" stroke-width="2.88372"/>
</svg>
