<svg width="44" height="54" viewBox="0 0 44 54" fill="none" xmlns="http://www.w3.org/2000/svg">
<g id="Group 1321317913">
<g id="Group 1321317912">
<path id="Vector" d="M11.1802 52.3809C10.5902 52.3788 10.0086 52.2417 9.48094 51.9805C8.95328 51.7193 8.49378 51.341 8.13833 50.8751C7.78592 50.4149 7.54724 49.8796 7.44136 49.3119C7.33548 48.7442 7.36534 48.1598 7.52856 47.6056L11.7387 32.9666H6.16939C5.5604 32.9665 4.96042 32.8211 4.42035 32.5427C3.88028 32.2643 3.41605 31.8611 3.06704 31.3674C2.71803 30.8736 2.49455 30.3039 2.41555 29.7065C2.33654 29.1091 2.40435 28.5017 2.61321 27.9358L11.1453 4.83988C11.4129 4.12 11.8969 3.49845 12.5323 3.05883C13.1676 2.61922 13.9238 2.38262 14.6991 2.38086H37.8842C38.56 2.38033 39.2236 2.55885 39.8061 2.89787C40.3886 3.2369 40.8687 3.72407 41.1965 4.30874C41.5243 4.89342 41.6879 5.55425 41.6702 6.22261C41.6525 6.89097 41.4542 7.54245 41.0959 8.10935L31.2349 23.7177H35.9897C36.7625 23.7168 37.5171 23.95 38.1519 24.386C38.7868 24.822 39.2715 25.4398 39.5409 26.1563C39.8103 26.8729 39.8515 27.6539 39.6589 28.3943C39.4663 29.1348 39.0492 29.7991 38.4637 30.2981L13.6425 51.4668C12.9586 52.0529 12.085 52.3772 11.1802 52.3809Z" fill="#FFCE26" stroke="white" stroke-width="3"/>
</g>
</g>
</svg>
