<svg width="24" height="24" viewBox="0 0 24 24" fill="none" xmlns="http://www.w3.org/2000/svg">
<path d="M3.16633 23.4199L7.31879 19.2675V21.3976C7.31828 21.6241 7.3625 21.8485 7.44883 22.0579C7.53516 22.2673 7.66192 22.4576 7.8219 22.618C7.9818 22.7784 8.17187 22.9056 8.38102 22.9925C8.59025 23.0793 8.81448 23.124 9.04097 23.1242C9.49811 23.1242 9.93652 22.9426 10.2598 22.6193C10.583 22.2961 10.7646 21.8577 10.7646 21.4005V15.0159C10.7651 14.7893 10.7208 14.5648 10.6344 14.3553C10.548 14.1458 10.4211 13.9554 10.261 13.7951C10.1009 13.6346 9.91073 13.5074 9.70136 13.4207C9.49199 13.3339 9.26761 13.2893 9.04097 13.2894H2.64691C2.41765 13.2847 2.1897 13.3258 1.97647 13.4103C1.76331 13.4948 1.56909 13.6209 1.40525 13.7814C1.24149 13.9419 1.1113 14.1334 1.02243 14.3449C0.933622 14.5563 0.887872 14.7833 0.887872 15.0127C0.887872 15.242 0.933622 15.469 1.02243 15.6804C1.1113 15.8918 1.24149 16.0834 1.40525 16.2439C1.56909 16.4044 1.76331 16.5306 1.97647 16.6151C2.1897 16.6995 2.41765 16.7407 2.64691 16.7359H4.63499L0.559026 20.8156C0.383749 20.9858 0.244095 21.1893 0.148078 21.414C0.0521347 21.6388 0.00179567 21.8803 4.72696e-05 22.1247C-0.00170113 22.3691 0.0450682 22.6114 0.137806 22.8375C0.230472 23.0636 0.367212 23.2691 0.540012 23.4419C0.712813 23.6147 0.918251 23.7513 1.14438 23.8441C1.3705 23.9367 1.6128 23.9836 1.85714 23.9818C2.10156 23.9801 2.34313 23.9297 2.56787 23.8338C2.79261 23.7378 2.99608 23.5981 3.16633 23.4229V23.4199ZM20.8329 23.4196L16.6805 19.2671V21.3973C16.6808 21.6238 16.6366 21.8482 16.5502 22.0576C16.4638 22.267 16.337 22.4573 16.1769 22.6176C16.017 22.7781 15.8269 22.9053 15.6177 22.9921C15.4084 23.0789 15.1841 23.1237 14.9576 23.1238C14.7313 23.1238 14.5071 23.0792 14.2981 22.9926C14.089 22.906 13.8991 22.779 13.7391 22.6189C13.579 22.4588 13.4521 22.2688 13.3656 22.0597C13.2791 21.8506 13.2346 21.6265 13.2347 21.4002V15.0156C13.2342 14.789 13.2784 14.5646 13.3648 14.3551C13.4512 14.1457 13.578 13.9553 13.738 13.7949C13.898 13.6346 14.0882 13.5074 14.2974 13.4205C14.5067 13.3337 14.731 13.289 14.9576 13.289H21.3524C21.8033 13.2983 22.2326 13.4839 22.5482 13.8061C22.8638 14.1283 23.0406 14.5613 23.0406 15.0123C23.0406 15.4633 22.8638 15.8963 22.5482 16.2185C22.2326 16.5407 21.8033 16.7263 21.3524 16.7356H19.3643L23.4402 20.8152C23.6155 20.9854 23.7552 21.1889 23.8512 21.4137C23.9471 21.6384 23.9975 21.88 23.9992 22.1244C24.001 22.3687 23.9542 22.611 23.8615 22.8371C23.7688 23.0633 23.6321 23.2687 23.4593 23.4415C23.2865 23.6143 23.081 23.751 22.8549 23.8437C22.6288 23.9365 22.3865 23.9832 22.1421 23.9815C21.8977 23.9797 21.6561 23.9294 21.4314 23.8334C21.2067 23.7374 21.0033 23.5978 20.8329 23.4225V23.4196ZM0.634135 3.21808L4.78659 7.37054H2.65646C2.19954 7.37054 1.76135 7.55208 1.43818 7.87518C1.11509 8.19827 0.933549 8.63653 0.933549 9.09345C0.933476 9.31979 0.977988 9.54388 1.06453 9.75304C1.15108 9.96212 1.27798 10.1522 1.43796 10.3122C1.59794 10.4723 1.78794 10.5993 1.99702 10.6859C2.2061 10.7725 2.43018 10.8171 2.65646 10.8171H9.03959C9.49636 10.8164 9.93411 10.6343 10.2568 10.311C10.5794 9.98769 10.7605 9.54949 10.7603 9.09272V2.69866C10.765 2.4694 10.724 2.24145 10.6394 2.02829C10.555 1.81506 10.4288 1.62084 10.2683 1.45708C10.1079 1.29324 9.91626 1.16305 9.70485 1.07425C9.49344 0.985372 9.26637 0.939622 9.03704 0.939622C8.8077 0.939622 8.5807 0.985372 8.36929 1.07425C8.15788 1.16305 7.96628 1.29324 7.8058 1.45708C7.64531 1.62084 7.51913 1.81506 7.43463 2.02829C7.35019 2.24145 7.3091 2.4694 7.31377 2.69866V4.68674L3.2378 0.610776C3.0693 0.428432 2.86561 0.28193 2.63904 0.180231C2.41248 0.0784596 2.1677 0.0235308 1.91936 0.0187227C1.67108 0.0139875 1.42434 0.0593731 1.19406 0.152257C0.963709 0.245141 0.754483 0.383629 0.57906 0.559344C0.403564 0.735131 0.265367 0.944503 0.172775 1.17493C0.0801822 1.40543 0.0351608 1.65217 0.0402603 1.90051C0.0454326 2.14879 0.100726 2.39349 0.202716 2.61991C0.304779 2.84633 0.451572 3.0498 0.634135 3.21808ZM23.4787 3.14698L19.3263 7.29944H21.4564C21.6827 7.2993 21.9068 7.34381 22.1159 7.43035C22.3251 7.5169 22.515 7.6438 22.6751 7.80378C22.8351 7.96376 22.9621 8.15376 23.0487 8.36283C23.1354 8.57192 23.18 8.796 23.18 9.02235C23.18 9.47948 22.9984 9.9179 22.6752 10.2411C22.3519 10.5644 21.9135 10.746 21.4564 10.746H15.0718C14.8455 10.746 14.6214 10.7014 14.4123 10.6147C14.2032 10.5281 14.0132 10.4011 13.8532 10.2411C13.6933 10.081 13.5663 9.89101 13.4798 9.68186C13.3933 9.47278 13.3487 9.24862 13.3489 9.02235V2.62756C13.3442 2.39823 13.3852 2.17035 13.4698 1.95712C13.5542 1.74389 13.6804 1.54974 13.8408 1.3859C14.0013 1.22206 14.1929 1.09195 14.4043 1.00307C14.6158 0.91427 14.8428 0.868447 15.0722 0.868447C15.3015 0.868447 15.5285 0.91427 15.7399 1.00307C15.9513 1.09195 16.1429 1.22206 16.3034 1.3859C16.4639 1.54974 16.5901 1.74389 16.6746 1.95712C16.759 2.17035 16.8001 2.39823 16.7954 2.62756V4.61564L20.8714 0.539674C21.2188 0.202087 21.6851 0.0148619 22.1695 0.0183587C22.6539 0.0218555 23.1174 0.215855 23.46 0.558397C23.8025 0.900865 23.9965 1.36441 24 1.84879C24.0034 2.33325 23.8162 2.79949 23.4787 3.14698Z" fill="white"/>
</svg>
