<svg width="24" height="24" viewBox="0 0 24 24" fill="none" xmlns="http://www.w3.org/2000/svg">
<path id="Vector" d="M7.59826 13.8537L3.44588 18.0125V15.8791C3.44632 15.6523 3.4021 15.4276 3.31584 15.2179C3.22952 15.0081 3.10268 14.8175 2.94278 14.6569C2.7828 14.4963 2.59281 14.3688 2.38358 14.2818C2.17443 14.1949 1.9502 14.1501 1.72363 14.1499C1.2665 14.1499 0.828089 14.3318 0.504854 14.6556C0.181618 14.9793 3.20904e-06 15.4184 3.20904e-06 15.8762V22.2705C-0.000433891 22.4974 0.0437857 22.7223 0.130186 22.9321C0.216586 23.1419 0.343491 23.3326 0.503615 23.4932C0.663739 23.6539 0.85395 23.7813 1.06325 23.8682C1.27262 23.9551 1.49707 23.9998 1.72363 23.9996H8.11768C8.34701 24.0044 8.57488 23.9632 8.78812 23.8786C9.00135 23.794 9.19549 23.6676 9.35933 23.5069C9.52317 23.3461 9.65328 23.1543 9.74216 22.9426C9.83104 22.7308 9.87679 22.5034 9.87679 22.2737C9.87679 22.0441 9.83104 21.8167 9.74216 21.605C9.65328 21.3933 9.52317 21.2014 9.35933 21.0406C9.19549 20.8799 9.00135 20.7535 8.78812 20.6689C8.57488 20.5843 8.34701 20.5432 8.11768 20.5479H6.1296L10.2056 16.4621C10.3809 16.2916 10.5206 16.0878 10.6165 15.8627C10.7125 15.6376 10.7628 15.3957 10.7646 15.1509C10.7664 14.9062 10.7195 14.6635 10.6269 14.437C10.5341 14.2106 10.3974 14.0048 10.2246 13.8318C10.0518 13.6587 9.84634 13.5218 9.62021 13.4289C9.39416 13.3361 9.15186 13.2892 8.90745 13.291C8.66311 13.2927 8.42154 13.3431 8.19679 13.4392C7.97198 13.5354 7.76858 13.6753 7.59826 13.8508V13.8537ZM16.401 13.8537L20.5535 18.0125V15.8791C20.5531 15.6523 20.5974 15.4275 20.6838 15.2178C20.7702 15.008 20.897 14.8175 21.057 14.6569C21.2171 14.4963 21.4071 14.3688 21.6163 14.2818C21.8256 14.1949 22.0499 14.1501 22.2764 14.1499C22.5027 14.1499 22.7268 14.1946 22.9359 14.2813C23.145 14.3682 23.3349 14.4953 23.4949 14.6556C23.6549 14.8159 23.7818 15.0062 23.8684 15.2157C23.9549 15.4251 23.9994 15.6496 23.9993 15.8762V22.2705C23.9998 22.4974 23.9556 22.7222 23.8692 22.9319C23.7828 23.1417 23.656 23.3323 23.4959 23.493C23.3359 23.6536 23.1458 23.781 22.9365 23.8679C22.7273 23.9549 22.5029 23.9996 22.2764 23.9996H15.8816C15.4307 23.9904 15.0014 23.8045 14.6858 23.4818C14.3702 23.1591 14.1934 22.7254 14.1934 22.2737C14.1934 21.822 14.3702 21.3884 14.6858 21.0657C15.0014 20.7431 15.4307 20.5571 15.8816 20.5479H17.8697L13.7937 16.4621C13.6184 16.2916 13.4788 16.0878 13.3828 15.8627C13.2868 15.6376 13.2365 15.3957 13.2347 15.1509C13.233 14.9062 13.2798 14.6635 13.3725 14.437C13.4652 14.2106 13.6019 14.0048 13.7747 13.8318C13.9475 13.6587 14.1529 13.5218 14.3791 13.4289C14.6052 13.3361 14.8475 13.2892 15.0918 13.291C15.3362 13.2927 15.5778 13.3431 15.8025 13.4392C16.0273 13.5354 16.2308 13.6753 16.401 13.8508V13.8537ZM10.1664 7.61054L6.01392 3.45177H8.14405C8.60104 3.45177 9.03923 3.26995 9.36232 2.94637C9.68548 2.62279 9.86695 2.18386 9.86695 1.72625C9.8671 1.49956 9.82259 1.27513 9.73604 1.06566C9.6495 0.856267 9.52259 0.665913 9.36261 0.505618C9.20263 0.345323 9.01264 0.218152 8.80356 0.131402C8.59448 0.0446516 8.37039 0 8.14405 0H1.76093C1.30416 0.000729607 0.866408 0.183058 0.543755 0.506858C0.221176 0.830658 0.0400704 1.26952 0.0402161 1.72698V8.13074C0.0355537 8.36035 0.0766413 8.58865 0.161074 8.80213C0.24558 9.01569 0.371756 9.2102 0.532245 9.37421C0.692733 9.5383 0.884329 9.66869 1.09574 9.75762C1.30715 9.84664 1.53415 9.89246 1.76348 9.89246C1.99281 9.89246 2.21989 9.84664 2.4313 9.75762C2.64271 9.66869 2.8343 9.5383 2.99479 9.37421C3.15528 9.2102 3.28146 9.01569 3.36589 8.80213C3.4504 8.58865 3.49148 8.36035 3.48675 8.13074V6.13965L7.56271 10.2218C7.73128 10.4044 7.93497 10.5511 8.16153 10.653C8.3881 10.7549 8.63287 10.8099 8.88115 10.8148C9.12949 10.8195 9.37623 10.774 9.60651 10.681C9.83686 10.588 10.046 10.4493 10.2215 10.2733C10.397 10.0973 10.5352 9.88757 10.6278 9.65679C10.7203 9.42594 10.7654 9.17883 10.7602 8.93018C10.7551 8.68145 10.6998 8.43638 10.5978 8.20962C10.4957 7.98285 10.349 7.77907 10.1664 7.61054ZM13.8698 7.61054L18.0223 3.45177H15.8922C15.6658 3.45185 15.4417 3.40727 15.2326 3.32059C15.0235 3.23391 14.8335 3.10689 14.6734 2.94659C14.5133 2.78637 14.3863 2.59616 14.2997 2.38676C14.2131 2.17737 14.1685 1.95287 14.1685 1.72625C14.1685 1.26842 14.3501 0.829345 14.6734 0.505618C14.9966 0.181891 15.435 0 15.8922 0H22.2767C22.5031 0 22.7272 0.0446516 22.9362 0.131402C23.1453 0.218152 23.3352 0.345323 23.4953 0.505618C23.6553 0.665913 23.7822 0.856267 23.8687 1.06566C23.9552 1.27513 23.9997 1.49956 23.9996 1.72625V8.13074C24.0044 8.36035 23.9633 8.58865 23.8788 8.80213C23.7943 9.01569 23.6681 9.2102 23.5076 9.37421C23.3471 9.5383 23.1556 9.66869 22.9442 9.75762C22.7327 9.84664 22.5057 9.89246 22.2764 9.89246C22.047 9.89246 21.82 9.84664 21.6086 9.75762C21.3971 9.66869 21.2056 9.5383 21.0451 9.37421C20.8846 9.2102 20.7585 9.01569 20.674 8.80213C20.5895 8.58865 20.5484 8.36035 20.5531 8.13074V6.13965L16.4771 10.2218C16.1297 10.5598 15.6634 10.7473 15.179 10.7438C14.6946 10.7403 14.2311 10.546 13.8886 10.2031C13.546 9.85999 13.3521 9.39574 13.3486 8.91062C13.345 8.42551 13.5323 7.95849 13.8698 7.61054Z" fill="white"/>
</svg>
