<svg width="25" height="24" viewBox="0 0 25 24" fill="none" xmlns="http://www.w3.org/2000/svg">
<path fill-rule="evenodd" clip-rule="evenodd" d="M15.3687 17.7127C15.3687 19.5283 13.2307 21 10.5933 21C7.95589 21 5.81787 19.5283 5.81787 17.7127C5.81787 15.8973 7.95589 14.4255 10.5933 14.4255C10.9796 14.4255 11.3552 14.457 11.7149 14.5166V5.07907C11.7149 5.06234 11.7151 5.04563 11.7156 5.02895C11.7155 5.02488 11.7155 5.02081 11.7154 5.01673C11.618 2.23385 15.681 2.38362 15.3573 5.14101L15.3568 5.1406V5.41952C15.4099 5.63598 15.5851 5.81582 15.8119 6.04858C15.8411 6.07851 15.8711 6.1093 15.9018 6.14117C16.004 6.22436 16.1059 6.30708 16.2075 6.38944C18.8431 8.52759 21.1869 10.429 19.7394 14.3632C19.6394 14.6414 19.4377 14.8715 19.1749 15.0069C18.9121 15.1424 18.6077 15.1733 18.323 15.0933C18.0383 15.0133 17.7946 14.8284 17.6408 14.5758C17.487 14.3233 17.4346 14.0219 17.4942 13.7322C18.1006 11.6036 16.8486 10.6486 15.3568 9.70658V17.4781C15.3647 17.5556 15.3687 17.6339 15.3687 17.7127Z" fill="white"/>
</svg>
