<svg width="24" height="24" viewBox="0 0 24 24" fill="none" xmlns="http://www.w3.org/2000/svg">
<path d="M12.5086 19.3008C12.0842 19.3008 11.6772 19.1322 11.3772 18.8322C11.0771 18.5321 10.9086 18.1251 10.9086 17.7008V6.6C10.9086 6.17564 11.0771 5.76868 11.3772 5.4686C11.6772 5.16856 12.0842 5 12.5086 5C12.9329 5 13.3399 5.16856 13.6399 5.4686C13.94 5.76868 14.1086 6.17564 14.1086 6.6V17.7008C14.1086 18.1251 13.94 18.5321 13.6399 18.8322C13.3399 19.1322 12.9329 19.3008 12.5086 19.3008Z" fill="white"/>
<path d="M8.98668 22C11.7408 22 13.9734 20.365 13.9734 18.3481C13.9734 16.3313 11.7408 14.6963 8.98668 14.6963C6.23265 14.6963 4 16.3313 4 18.3481C4 20.365 6.23265 22 8.98668 22ZM13.9596 4.38046C13.8726 4.81994 14.1497 5.07331 14.53 5.49306C17.407 7.98478 20.1071 10.0881 18.5379 14.627C18.4329 14.9354 18.2221 15.1901 17.9478 15.3399C17.6736 15.4898 17.3562 15.5238 17.0594 15.4351C16.7626 15.3464 16.5083 15.1415 16.3476 14.8616C16.1869 14.5817 16.1316 14.2475 16.1929 13.9261C17.5311 8.92645 10.2108 9.74977 10.1594 4.24038C10.0572 1.14889 14.2999 1.31527 13.9624 4.37844L13.9596 4.38046ZM17.6643 19.8947C17.4523 19.8954 17.2482 19.8095 17.0939 19.6549L5.16671 7.73091C5.08709 7.65125 5.02305 7.55562 4.97818 7.44962C4.9333 7.34357 4.90849 7.22917 4.90521 7.11296C4.89851 6.8782 4.97975 6.65027 5.13106 6.47923C5.28232 6.30825 5.4913 6.20816 5.71192 6.20108C5.93259 6.19395 6.14684 6.28038 6.30757 6.4413L18.2347 18.3648C18.3562 18.4864 18.4406 18.6439 18.4769 18.8172C18.5132 18.9903 18.4997 19.1711 18.4382 19.336C18.3767 19.5009 18.27 19.6424 18.132 19.742C17.994 19.8416 17.8311 19.8948 17.6643 19.8947Z" fill="white"/>
</svg>
