<svg width="46" height="34" viewBox="0 0 46 34" fill="none" xmlns="http://www.w3.org/2000/svg">
<path d="M12.6144 1.5H15.117C15.3989 2.72068 15.9916 4.09276 16.8563 5.2874C18.1305 7.04772 20.176 8.65789 23 8.65789C25.824 8.65789 27.8695 7.04772 29.1437 5.2874C30.0084 4.09277 30.6011 2.72068 30.883 1.5H33.3856C33.4782 1.5 33.569 1.52574 33.6479 1.57434L34.4317 0.302593L33.6479 1.57434L44.1308 8.03489L41.8578 13.603L36.6211 11.8414L34.7173 11.201L34.6439 13.2083L33.9385 32.5H12.0615L11.3561 13.2083L11.2827 11.201L9.3789 11.8414L4.14222 13.603L1.86919 8.03489L12.3521 1.57434C12.431 1.52574 12.5218 1.5 12.6144 1.5Z" fill="white" stroke="white" stroke-width="3"/>
</svg>
