<svg width="62" height="51" viewBox="0 0 62 51" fill="none" xmlns="http://www.w3.org/2000/svg">
<path d="M16.9243 9.79872L13.7086 17.9017C13.3088 18.9091 14.1216 19.9808 15.1995 19.8676L23.6477 18.9796C24.751 18.8636 25.3155 17.5972 24.6642 16.6992L19.4317 9.48409C18.7642 8.56366 17.3437 8.7419 16.9243 9.79872Z" fill="#E9961B"/>
<path d="M42.0213 9.47758L37.1912 16.7349C36.5907 17.6371 37.1629 18.8545 38.2408 18.9678L46.689 19.8557C47.7923 19.9717 48.6077 18.8503 48.1574 17.8364L44.5394 9.69115C44.0778 8.65205 42.6513 8.53106 42.0213 9.47758Z" fill="#E9961B"/>
<path d="M6.33823 14.7207C5.64847 11.9339 9.01077 9.96068 11.1074 11.9218L17.3288 17.7412C18.553 18.8863 20.4922 18.7499 21.544 17.4448L29.1076 8.0597C30.2619 6.62746 32.444 6.62746 33.5983 8.0597L41.1619 17.4448C42.2137 18.7499 44.1529 18.8863 45.3771 17.7412L51.5985 11.9219C53.6951 9.96069 57.0574 11.9339 56.3677 14.7207L49.0771 44.1762C48.1935 47.7464 44.9894 50.2541 41.3115 50.2541H21.3945C17.7165 50.2541 14.5124 47.7464 13.6288 44.1762L6.33823 14.7207Z" fill="#F9BA17"/>
<circle cx="31.6074" cy="4.86275" r="3.42089" fill="#F96817" stroke="#F9BA17" stroke-width="2.88372"/>
<circle cx="18.2342" cy="7.29403" r="3.64706" fill="#E9961B"/>
<circle cx="43.7645" cy="7.29403" r="3.64706" fill="#E9961B"/>
<circle cx="57.1376" cy="7.2939" r="3.42089" fill="#F96817" stroke="#F9BA17" stroke-width="2.88372"/>
<circle cx="4.86275" cy="8.50972" r="3.42089" fill="#F96817" stroke="#F9BA17" stroke-width="2.88372"/>
<g filter="url(#filter0_d_7005_190771)">
<path d="M30.546 42.8824C26.0762 42.8824 22.6446 40.2582 22.6446 36.1345C22.6446 33.8852 23.8269 32.0973 25.8167 30.9726C24.2594 29.8192 23.5097 28.2331 23.5097 26.5317C23.5097 22.9559 26.5664 20.5624 30.546 20.5624C34.5255 20.5624 37.5822 22.9559 37.5822 26.5317C37.5822 28.2043 36.8036 29.7038 35.3041 30.9726C37.2362 32.0685 38.3608 33.8564 38.3608 36.1345C38.3608 40.2582 34.9581 42.8824 30.546 42.8824ZM33.3143 26.9931C33.3143 25.4647 32.132 24.4843 30.5171 24.4843C28.9311 24.4843 27.8064 25.4647 27.8064 26.9931C27.8064 28.5503 28.9311 29.5596 30.5171 29.5596C32.132 29.5596 33.3143 28.5503 33.3143 26.9931ZM33.8911 35.8173C33.8911 34.0294 32.4781 32.9336 30.5748 32.9336C28.6427 32.9336 27.2008 34.0294 27.2008 35.8173C27.2008 37.634 28.6427 38.7299 30.5748 38.7299C32.4781 38.7299 33.8911 37.634 33.8911 35.8173Z" fill="white"/>
</g>
<defs>
<filter id="filter0_d_7005_190771" x="22.6445" y="20.5625" width="15.7163" height="25.2035" filterUnits="userSpaceOnUse" color-interpolation-filters="sRGB">
<feFlood flood-opacity="0" result="BackgroundImageFix"/>
<feColorMatrix in="SourceAlpha" type="matrix" values="0 0 0 0 0 0 0 0 0 0 0 0 0 0 0 0 0 0 127 0" result="hardAlpha"/>
<feOffset dy="2.88372"/>
<feComposite in2="hardAlpha" operator="out"/>
<feColorMatrix type="matrix" values="0 0 0 0 0.703854 0 0 0 0 0.432007 0 0 0 0 0.0211458 0 0 0 1 0"/>
<feBlend mode="normal" in2="BackgroundImageFix" result="effect1_dropShadow_7005_190771"/>
<feBlend mode="normal" in="SourceGraphic" in2="effect1_dropShadow_7005_190771" result="shape"/>
</filter>
</defs>
</svg>
