<svg width="80" height="56" viewBox="0 0 80 56" fill="none" xmlns="http://www.w3.org/2000/svg">
<path d="M3.50513 31.5588H50.9278V55.0001H12.6185C7.58759 55.0001 3.50513 50.8999 3.50513 45.8472V31.5588Z" fill="#11DDEA"/>
<path d="M43.4229 31.5588H72.9075C73.526 31.5588 74.0621 32.0558 74.0621 32.7185V45.8472C74.0621 50.8999 69.9797 55.0001 64.9487 55.0001H51.4642C46.4333 55.0001 42.3508 50.8999 42.3508 45.8472V32.7185C42.2683 32.0558 42.7632 31.5588 43.4229 31.5588Z" fill="#178CA6"/>
<path d="M46.1856 53.3432C43.8351 51.6866 42.2681 48.9118 42.2681 45.8056V32.7183" stroke="#CFF3FF" stroke-width="4" stroke-miterlimit="10" stroke-linecap="round" stroke-linejoin="round"/>
<path d="M14.3505 10.147C7.67012 10.147 2.26807 15.5724 2.26807 22.2817V35.4105H58.3505V10.147H14.3505Z" fill="#BEE1E9"/>
<path d="M74.1444 35.4102H42.1856C41.5671 35.4102 41.031 34.9132 41.031 34.2505V22.24C41.031 15.5307 46.4331 10.1052 53.1135 10.1052H63.2166C69.897 10.1052 75.299 15.5307 75.299 22.24V34.2505C75.2578 34.9132 74.763 35.4102 74.1444 35.4102Z" fill="#178CA6"/>
<path d="M41.031 22.2815C41.031 18.1814 43.0516 14.5368 46.1856 12.3418" stroke="#CFF3FF" stroke-width="4" stroke-miterlimit="10" stroke-linecap="round" stroke-linejoin="round"/>
<path d="M52.1656 10.1468H48.0419V6.00526C48.0419 4.96987 47.2172 4.14156 46.1862 4.14156H32.9904C31.9594 4.14156 31.1347 4.96987 31.1347 6.00526V10.1468H27.011V6.00526C27.011 2.69201 29.6914 0 32.9904 0H46.1862C49.4852 0 52.1656 2.69201 52.1656 6.00526V10.1468Z" fill="#4B97B7"/>
<path d="M29.4842 48.4562H17.5254C12.6182 48.4562 8.65942 44.4803 8.65942 39.5518V27.5413C8.65942 22.6129 12.6182 18.637 17.5254 18.637H29.4842C34.3914 18.637 38.3501 22.6129 38.3501 27.5413V39.5518C38.3501 44.4803 34.3914 48.4562 29.4842 48.4562Z" fill="#CFF3FF"/>
<path d="M11.9588 37.0669H2.47423C1.1134 37.0669 0 35.9487 0 34.582V32.9254C0 31.5587 1.1134 30.4404 2.47423 30.4404H11.9588V37.0669Z" fill="#EFFCFB"/>
<path d="M41.031 30.4404H36.4949V37.0669H41.031V30.4404Z" fill="#EFFCFB"/>
<path d="M75.258 37.0669H41.6498C40.2889 37.0669 39.1755 35.9487 39.1755 34.582V32.9254C39.1755 31.5587 40.2889 30.4404 41.6498 30.4404H75.258C76.6188 30.4404 77.7322 31.5587 77.7322 32.9254V34.582C77.7322 35.9487 76.6188 37.0669 75.258 37.0669Z" fill="#CFF3FF"/>
<path d="M15.6705 43.4864C13.5261 43.4864 11.7529 41.7055 11.7529 39.5519V27.5414C11.7529 25.3878 13.5261 23.6069 15.6705 23.6069H27.6292C29.7735 23.6069 31.5467 25.3878 31.5467 27.5414V39.5519C31.5467 41.7055 29.7735 43.4864 27.6292 43.4864H15.6705Z" fill="#4C00AA"/>
<path d="M30.6806 7.66187H27.4641C26.1857 7.66187 25.1548 8.69725 25.1548 9.98114V10.1468H32.9898V9.98114C32.9898 8.69725 31.9589 7.66187 30.6806 7.66187Z" fill="#38A1AF"/>
<path d="M51.7108 7.66211H48.4943C47.216 7.66211 46.1851 8.6975 46.1851 9.98138V10.147H54.0201V9.98138C54.0201 8.6975 52.9892 7.66211 51.7108 7.66211Z" fill="#38A1AF"/>
<path d="M74.2268 39.5519C77.4153 39.5519 80 36.956 80 33.7537C80 30.5515 77.4153 27.9556 74.2268 27.9556C71.0384 27.9556 68.4536 30.5515 68.4536 33.7537C68.4536 36.956 71.0384 39.5519 74.2268 39.5519Z" fill="#CFF3FF"/>
<path d="M74.2264 36.6527C75.8207 36.6527 77.113 35.3547 77.113 33.7536C77.113 32.1525 75.8207 30.8545 74.2264 30.8545C72.6322 30.8545 71.3398 32.1525 71.3398 33.7536C71.3398 35.3547 72.6322 36.6527 74.2264 36.6527Z" fill="#11A5C6"/>
<path d="M27.6289 48.4562H15.6702C10.763 48.4562 6.8042 44.4803 6.8042 39.5518V27.5413C6.8042 22.6129 10.763 18.637 15.6702 18.637H27.6289C32.5362 18.637 36.4949 22.6129 36.4949 27.5413V39.5518C36.4949 44.4803 32.5362 48.4562 27.6289 48.4562Z" fill="#EFFCFB"/>
<path d="M15.6705 43.4864C13.5261 43.4864 11.7529 41.7055 11.7529 39.5519V27.5414C11.7529 25.3878 13.5261 23.6069 15.6705 23.6069H27.6292C29.7735 23.6069 31.5467 25.3878 31.5467 27.5414V39.5519C31.5467 41.7055 29.7735 43.4864 27.6292 43.4864H15.6705Z" fill="#0089A7"/>
<path d="M13.1962 39.5519V27.5414C13.1962 25.3878 14.9694 23.6069 17.1138 23.6069H15.6705C13.5261 23.6069 11.7529 25.3878 11.7529 27.5414V39.5519C11.7529 41.7055 13.5261 43.4864 15.6705 43.4864H17.1138C14.9694 43.4864 13.1962 41.7055 13.1962 39.5519Z" fill="#68F6FF"/>
<path d="M25.1136 29.4053C24.66 27.8315 23.5878 26.6304 22.928 26.0506C22.6806 25.8021 22.2683 25.8021 22.0208 26.0506C21.4023 26.6304 20.2889 27.7901 19.8353 29.4053C19.7115 29.8609 19.1755 30.0679 18.8043 29.8194C18.1033 29.3639 17.1549 28.9497 16.2889 28.6184C15.9177 28.4941 15.5054 28.7012 15.3816 29.074C15.1755 29.8609 15.0518 30.6892 15.0518 31.5589C15.0518 36.2803 18.3507 40.0905 22.4744 40.0905C26.5981 40.0905 29.8971 36.2803 29.8971 31.5589C29.8971 30.6892 29.7734 29.8609 29.5672 29.074C29.4848 28.7012 29.0311 28.4527 28.66 28.6184C27.794 28.9497 26.8456 29.3639 26.1446 29.8194C25.7322 30.0679 25.2373 29.8609 25.1136 29.4053Z" fill="#68F6FF"/>
<path d="M21.6494 38.4336C18.4742 38.4336 15.8762 35.3275 15.8762 31.5586C15.8762 31.2273 15.8762 30.896 15.9174 30.5647C16.3711 30.7717 16.7422 30.9788 17.0309 31.1859C17.402 31.4344 17.8556 31.5586 18.3092 31.5586C19.3401 31.5586 20.2886 30.8546 20.5773 29.8192C20.7834 29.0737 21.1958 28.411 21.6082 27.9141C22.0206 28.411 22.4329 29.0323 22.6391 29.8192C22.9278 30.8132 23.835 31.5586 24.9072 31.5586C25.3608 31.5586 25.8144 31.4344 26.1855 31.1859C26.4742 30.9788 26.8453 30.7717 27.2989 30.6061C27.3401 30.9374 27.3401 31.2687 27.3401 31.6001C27.4226 35.3689 24.8247 38.4336 21.6494 38.4336Z" fill="#AEFFFD"/>
</svg>
